<!-- Generated by IcoMoon.io -->
<svg version="1.1" xmlns="http://www.w3.org/2000/svg" width="1024" height="1024" viewBox="0 0 1024 1024">
<title></title>
<g id="icomoon-ignore">
</g>
<path d="M512.001 0c-89.813 0-164.598 67.108-177.15 153.6h-270.849c-5.088-0.072-10.14 0.868-14.863 2.765s-9.020 4.714-12.644 8.288c-3.624 3.573-6.502 7.831-8.465 12.526s-2.976 9.733-2.976 14.821c0 5.089 1.011 10.128 2.976 14.822s4.841 8.952 8.465 12.525c3.624 3.573 7.921 6.391 12.644 8.288s9.773 2.837 14.863 2.765h54.7l64.5 666.347c7.015 72.527 67.317 127.253 140.2 127.253h377.199c72.885 0 133.163-54.726 140.2-127.253l64.501-666.347h54.698c5.088 0.072 10.143-0.868 14.863-2.765s9.021-4.715 12.646-8.288c3.62-3.573 6.502-7.831 8.462-12.525 1.966-4.694 2.977-9.733 2.977-14.822s-1.011-10.127-2.977-14.821c-1.96-4.695-4.843-8.952-8.462-12.526-3.625-3.573-7.925-6.389-12.646-8.288s-9.775-2.837-14.863-2.765h-270.849c-12.551-86.492-87.334-153.6-177.149-153.6zM512.001 76.799c48.106 0 87.569 32.464 98.853 76.8h-197.703c11.278-44.336 50.744-76.8 98.85-76.8zM396.801 358.399c21.196 0 38.4 17.177 38.4 38.4v383.998c0 21.225-17.204 38.4-38.4 38.4s-38.4-17.175-38.4-38.4v-383.998c0-21.223 17.204-38.4 38.4-38.4zM627.202 358.399c21.196 0 38.4 17.177 38.4 38.4v383.998c0 21.225-17.204 38.4-38.4 38.4s-38.4-17.175-38.4-38.4v-383.998c0-21.223 17.204-38.4 38.4-38.4z"></path>
</svg>
